<?xml version="1.0" encoding="UTF-8" standalone="no"?>
<!DOCTYPE svg PUBLIC "-//W3C//DTD SVG 1.1//EN" "http://www.w3.org/Graphics/SVG/1.1/DTD/svg11.dtd">
<svg version="1.1" xmlns="http://www.w3.org/2000/svg" xmlns:xlink="http://www.w3.org/1999/xlink" preserveAspectRatio="xMidYMid meet" viewBox="0 0 50 50" width="50" height="50"><defs><path d="M18.07 39.32C18.07 41.9 15.14 44 11.53 44C7.93 44 5 41.9 5 39.32C5 36.74 7.93 34.65 11.53 34.65C15.14 34.65 18.07 36.74 18.07 39.32Z" id="a1N1k5QmRl"></path><path d="M45 35.65C45 38.23 42.07 40.32 38.47 40.32C34.86 40.32 31.93 38.23 31.93 35.65C31.93 33.07 34.86 30.97 38.47 30.97C42.07 30.97 45 33.07 45 35.65Z" id="aqhBS3Do"></path><path d="M45 35.04L45 5L18.07 12.9L18.07 39.58" id="av4XZIIse"></path><path d="M45.4 5.32L18.47 13.44" id="b5W2ef0opd"></path><path d="M45 12.21L18.07 20.88" id="b53l4odNbG"></path></defs><g><g><g><g><use xlink:href="#a1N1k5QmRl" opacity="1" fill-opacity="0" stroke="#ffffff" stroke-width="3" stroke-opacity="1"></use></g></g><g><g><use xlink:href="#aqhBS3Do" opacity="1" fill-opacity="0" stroke="#ffffff" stroke-width="3" stroke-opacity="1"></use></g></g><g><g><use xlink:href="#av4XZIIse" opacity="1" fill-opacity="0" stroke="#ffffff" stroke-width="3" stroke-opacity="1"></use></g></g><g><g><use xlink:href="#b5W2ef0opd" opacity="1" fill-opacity="0" stroke="#ffffff" stroke-width="4" stroke-opacity="1"></use></g></g><g><g><use xlink:href="#b53l4odNbG" opacity="1" fill-opacity="0" stroke="#ffffff" stroke-width="3" stroke-opacity="1"></use></g></g></g></g></svg>